<mxfile host="app.diagrams.net" modified="2024-07-12T12:32:01.062Z" agent="Mozilla/5.0 (Macintosh; Intel Mac OS X 10_15_7) AppleWebKit/537.36 (KHTML, like Gecko) Chrome/126.0.0.0 Safari/537.36" etag="9AZiyQj2E7ugoEnHebeB" version="24.6.4" type="github">
  <diagram name="페이지-1" id="KstNCcDI4RJ8prsVRs72">
    <mxGraphModel dx="1026" dy="651" grid="1" gridSize="10" guides="1" tooltips="1" connect="1" arrows="1" fold="1" page="1" pageScale="1" pageWidth="827" pageHeight="1169" math="0" shadow="0">
      <root>
        <mxCell id="0" />
        <mxCell id="1" parent="0" />
        <mxCell id="bJA0QxrpCbyfzh6uyvzz-1" value="고객" style="whiteSpace=wrap;html=1;align=center;" vertex="1" parent="1">
          <mxGeometry x="350" y="310" width="100" height="40" as="geometry" />
        </mxCell>
        <mxCell id="bJA0QxrpCbyfzh6uyvzz-2" value="고객명" style="ellipse;whiteSpace=wrap;html=1;align=center;" vertex="1" parent="1">
          <mxGeometry x="210" y="190" width="100" height="40" as="geometry" />
        </mxCell>
        <mxCell id="bJA0QxrpCbyfzh6uyvzz-3" value="" style="endArrow=none;html=1;rounded=0;exitX=0.5;exitY=1;exitDx=0;exitDy=0;entryX=0.5;entryY=0;entryDx=0;entryDy=0;" edge="1" parent="1" source="bJA0QxrpCbyfzh6uyvzz-2" target="bJA0QxrpCbyfzh6uyvzz-1">
          <mxGeometry relative="1" as="geometry">
            <mxPoint x="330" y="340" as="sourcePoint" />
            <mxPoint x="490" y="340" as="targetPoint" />
          </mxGeometry>
        </mxCell>
        <mxCell id="bJA0QxrpCbyfzh6uyvzz-4" value="전화번호" style="ellipse;whiteSpace=wrap;html=1;align=center;fontStyle=4;" vertex="1" parent="1">
          <mxGeometry x="350" y="190" width="100" height="40" as="geometry" />
        </mxCell>
        <mxCell id="bJA0QxrpCbyfzh6uyvzz-5" value="" style="endArrow=none;html=1;rounded=0;exitX=0.5;exitY=1;exitDx=0;exitDy=0;entryX=0.5;entryY=0;entryDx=0;entryDy=0;" edge="1" parent="1" source="bJA0QxrpCbyfzh6uyvzz-4" target="bJA0QxrpCbyfzh6uyvzz-1">
          <mxGeometry relative="1" as="geometry">
            <mxPoint x="360" y="240" as="sourcePoint" />
            <mxPoint x="420" y="280" as="targetPoint" />
          </mxGeometry>
        </mxCell>
        <mxCell id="bJA0QxrpCbyfzh6uyvzz-7" value="이메일" style="ellipse;whiteSpace=wrap;html=1;align=center;fontStyle=4;" vertex="1" parent="1">
          <mxGeometry x="470" y="190" width="100" height="40" as="geometry" />
        </mxCell>
        <mxCell id="bJA0QxrpCbyfzh6uyvzz-8" value="고객코드" style="ellipse;whiteSpace=wrap;html=1;align=center;fontStyle=4;" vertex="1" parent="1">
          <mxGeometry x="590" y="190" width="100" height="40" as="geometry" />
        </mxCell>
        <mxCell id="bJA0QxrpCbyfzh6uyvzz-9" value="" style="endArrow=none;html=1;rounded=0;exitX=0.5;exitY=1;exitDx=0;exitDy=0;entryX=0.5;entryY=0;entryDx=0;entryDy=0;" edge="1" parent="1" source="bJA0QxrpCbyfzh6uyvzz-7" target="bJA0QxrpCbyfzh6uyvzz-1">
          <mxGeometry relative="1" as="geometry">
            <mxPoint x="410" y="240" as="sourcePoint" />
            <mxPoint x="410" y="320" as="targetPoint" />
          </mxGeometry>
        </mxCell>
        <mxCell id="bJA0QxrpCbyfzh6uyvzz-10" value="" style="endArrow=none;html=1;rounded=0;exitX=0.5;exitY=1;exitDx=0;exitDy=0;entryX=0.5;entryY=0;entryDx=0;entryDy=0;" edge="1" parent="1" source="bJA0QxrpCbyfzh6uyvzz-8" target="bJA0QxrpCbyfzh6uyvzz-1">
          <mxGeometry relative="1" as="geometry">
            <mxPoint x="420" y="250" as="sourcePoint" />
            <mxPoint x="420" y="330" as="targetPoint" />
          </mxGeometry>
        </mxCell>
        <mxCell id="bJA0QxrpCbyfzh6uyvzz-11" value="주소" style="ellipse;whiteSpace=wrap;html=1;align=center;" vertex="1" parent="1">
          <mxGeometry x="190" y="310" width="100" height="40" as="geometry" />
        </mxCell>
        <mxCell id="bJA0QxrpCbyfzh6uyvzz-12" value="상세주소" style="ellipse;whiteSpace=wrap;html=1;align=center;" vertex="1" parent="1">
          <mxGeometry x="70" y="360" width="100" height="40" as="geometry" />
        </mxCell>
        <mxCell id="bJA0QxrpCbyfzh6uyvzz-13" value="기본주소" style="ellipse;whiteSpace=wrap;html=1;align=center;" vertex="1" parent="1">
          <mxGeometry x="70" y="250" width="100" height="40" as="geometry" />
        </mxCell>
        <mxCell id="bJA0QxrpCbyfzh6uyvzz-14" value="가입일" style="ellipse;whiteSpace=wrap;html=1;align=center;" vertex="1" parent="1">
          <mxGeometry x="190" y="430" width="100" height="40" as="geometry" />
        </mxCell>
        <mxCell id="bJA0QxrpCbyfzh6uyvzz-15" value="" style="endArrow=none;html=1;rounded=0;exitX=1;exitY=0.5;exitDx=0;exitDy=0;entryX=0;entryY=0.5;entryDx=0;entryDy=0;" edge="1" parent="1" source="bJA0QxrpCbyfzh6uyvzz-11" target="bJA0QxrpCbyfzh6uyvzz-1">
          <mxGeometry relative="1" as="geometry">
            <mxPoint x="270" y="240" as="sourcePoint" />
            <mxPoint x="410" y="320" as="targetPoint" />
          </mxGeometry>
        </mxCell>
        <mxCell id="bJA0QxrpCbyfzh6uyvzz-16" value="" style="endArrow=none;html=1;rounded=0;exitX=0.5;exitY=1;exitDx=0;exitDy=0;entryX=0;entryY=0.5;entryDx=0;entryDy=0;" edge="1" parent="1" source="bJA0QxrpCbyfzh6uyvzz-13" target="bJA0QxrpCbyfzh6uyvzz-11">
          <mxGeometry relative="1" as="geometry">
            <mxPoint x="280" y="250" as="sourcePoint" />
            <mxPoint x="420" y="330" as="targetPoint" />
          </mxGeometry>
        </mxCell>
        <mxCell id="bJA0QxrpCbyfzh6uyvzz-17" value="" style="endArrow=none;html=1;rounded=0;exitX=0.44;exitY=0.05;exitDx=0;exitDy=0;exitPerimeter=0;entryX=0;entryY=0.5;entryDx=0;entryDy=0;" edge="1" parent="1" source="bJA0QxrpCbyfzh6uyvzz-12" target="bJA0QxrpCbyfzh6uyvzz-11">
          <mxGeometry relative="1" as="geometry">
            <mxPoint x="290" y="260" as="sourcePoint" />
            <mxPoint x="190" y="330" as="targetPoint" />
          </mxGeometry>
        </mxCell>
        <mxCell id="bJA0QxrpCbyfzh6uyvzz-18" value="" style="endArrow=none;html=1;rounded=0;exitX=1;exitY=0.5;exitDx=0;exitDy=0;entryX=0.5;entryY=1;entryDx=0;entryDy=0;" edge="1" parent="1" source="bJA0QxrpCbyfzh6uyvzz-14" target="bJA0QxrpCbyfzh6uyvzz-1">
          <mxGeometry relative="1" as="geometry">
            <mxPoint x="300" y="270" as="sourcePoint" />
            <mxPoint x="440" y="350" as="targetPoint" />
          </mxGeometry>
        </mxCell>
        <mxCell id="bJA0QxrpCbyfzh6uyvzz-19" value="지역" style="ellipse;whiteSpace=wrap;html=1;align=center;" vertex="1" parent="1">
          <mxGeometry x="350" y="450" width="100" height="40" as="geometry" />
        </mxCell>
        <mxCell id="bJA0QxrpCbyfzh6uyvzz-20" value="" style="endArrow=none;html=1;rounded=0;exitX=0.5;exitY=0;exitDx=0;exitDy=0;" edge="1" parent="1" source="bJA0QxrpCbyfzh6uyvzz-19">
          <mxGeometry relative="1" as="geometry">
            <mxPoint x="300" y="460" as="sourcePoint" />
            <mxPoint x="400" y="350" as="targetPoint" />
          </mxGeometry>
        </mxCell>
      </root>
    </mxGraphModel>
  </diagram>
</mxfile>
